<svg width="48" height="48" viewBox="0 0 48 48" fill="none" xmlns="http://www.w3.org/2000/svg">
<path d="M24 0C10.7453 0 0 10.7453 0 24C0 37.2547 10.7453 48 24 48C37.2547 48 48 37.2547 48 24C48 10.7453 37.2547 0 24 0ZM31.0513 13.7565C29.9104 13.7565 28.7623 13.7565 27.622 13.7565C26.9002 13.7098 26.1556 14.2607 26.0237 14.9825C26.0081 16.2318 26.0159 17.4807 26.0159 18.73C27.6916 18.7378 29.3678 18.73 31.044 18.7378C30.9199 20.5454 30.695 22.3457 30.4312 24.1304C28.9492 24.146 27.4672 24.1304 25.9852 24.1382C25.9697 29.4685 25.993 34.791 25.9774 40.1218C23.7737 40.1296 21.5782 40.1141 19.3744 40.1296C19.3355 34.7993 19.3744 29.469 19.3511 24.1382C18.2803 24.1304 17.2018 24.146 16.1311 24.1304C16.1389 22.3379 16.1311 20.5459 16.1311 18.7612C17.2018 18.7456 18.2803 18.7612 19.3511 18.7534C19.3822 17.0154 19.3199 15.2696 19.3822 13.5316C19.4985 12.1426 20.0183 10.7541 21.0506 9.79964C22.3 8.61259 24.0686 8.20912 25.7448 8.16239C27.514 8.14682 29.2831 8.15461 31.0518 8.15461C31.0591 10.0245 31.0591 11.8866 31.0513 13.7565Z" fill="#EF7C97"/>
</svg>
