<svg width="48" height="48" viewBox="0 0 48 48" fill="none" xmlns="http://www.w3.org/2000/svg">
<path d="M30.2536 11.9094H17.6272C14.4676 11.9094 11.8968 14.4802 11.8968 17.6398V30.382C11.8968 33.5416 14.4676 36.1124 17.6272 36.1124H30.2536C33.4132 36.1124 35.9839 33.5416 35.9839 30.382V17.6398C35.9839 14.4802 33.4132 11.9094 30.2536 11.9094ZM23.9645 31.6406C19.6815 31.6406 16.1973 28.1933 16.1973 23.9561C16.1973 19.719 19.682 16.2717 23.9645 16.2717C28.2469 16.2717 31.7317 19.719 31.7317 23.9561C31.7317 28.1933 28.2474 31.6406 23.9645 31.6406ZM31.8699 17.7848C30.8605 17.7848 30.0423 16.9667 30.0423 15.9573C30.0423 14.9479 30.8605 14.1297 31.8699 14.1297C32.8793 14.1297 33.6974 14.9479 33.6974 15.9573C33.6974 16.9667 32.8793 17.7848 31.8699 17.7848Z" fill="#EF7C97"/>
<path d="M24 0C10.7453 0 0 10.7453 0 24C0 37.2547 10.7453 48 24 48C37.2547 48 48 37.2547 48 24C48 10.7453 37.2547 0 24 0ZM38.8185 30.3821C38.8185 35.105 34.976 38.947 30.2536 38.947H17.6272C12.9043 38.947 9.0623 35.1045 9.0623 30.3821V17.6398C9.0623 12.9169 12.9048 9.07495 17.6272 9.07495H30.2536C34.9765 9.07495 38.8185 12.9174 38.8185 17.6398V30.3821Z" fill="#EF7C97"/>
<path d="M23.9645 19.1008C21.2414 19.1008 19.0264 21.2788 19.0264 23.9561C19.0264 26.6334 21.2414 28.8114 23.9645 28.8114C26.6875 28.8114 28.9025 26.6334 28.9025 23.9561C28.9025 21.2788 26.6875 19.1008 23.9645 19.1008Z" fill="#EF7C97"/>
</svg>
