<svg width="36" height="36" viewBox="0 0 36 36" fill="none" xmlns="http://www.w3.org/2000/svg">
<path d="M34.1516 15.9204L19.1091 0.877956C18.5242 0.292571 17.8229 0 17.0065 0C16.2052 0 15.5121 0.292571 14.9267 0.877956L13.1939 2.61088C12.6084 3.16551 12.3158 3.8587 12.3158 4.69061C12.3158 5.52235 12.6084 6.21554 13.1939 6.77033L19.9641 13.5636H3.69678C2.89595 13.5636 2.24509 13.8523 1.74444 14.4301C1.24379 15.0079 0.993469 15.705 0.993469 16.5212V19.4789C0.993469 20.2954 1.24387 20.9922 1.74444 21.57C2.24501 22.1478 2.89595 22.4363 3.69678 22.4363H19.9638L13.1936 29.2069C12.6082 29.7919 12.3155 30.4929 12.3155 31.3096C12.3155 32.1262 12.6082 32.8271 13.1936 33.4121L14.9265 35.145C15.5275 35.715 16.2206 36 17.0062 36C17.8074 36 18.5085 35.715 19.1089 35.145L34.1514 20.1026C34.7214 19.5326 35.0066 18.8319 35.0066 17.9999C35.0066 17.1528 34.7214 16.4592 34.1516 15.9204Z" fill="#EF7C97"/>
</svg>
