<svg width="18" height="18" viewBox="0 0 18 18" fill="none" xmlns="http://www.w3.org/2000/svg">
<g clip-path="url(#clip0)">
<path d="M4.72852 4.53516H13.2715V1.05469H14.1328V4.07812H15.1875V1.05469H16.1191V0H1.88086V1.05469H4.72852V4.53516Z" fill="#B2B2B2"/>
<path d="M5.7832 6.66376C5.7832 8.4375 7.22626 9.88055 9 9.88055C10.7737 9.88055 12.2168 8.4375 12.2168 6.66376V5.58984H5.7832V6.66376Z" fill="#B2B2B2"/>
<path d="M13.2131 10.0259L9 15.7228L4.78688 10.0259C2.78476 10.54 1.30078 12.3602 1.30078 14.5204V18H16.6992V14.5204C16.6992 12.3602 15.2152 10.54 13.2131 10.0259Z" fill="#B2B2B2"/>
<path d="M12.0087 9.88062H11.8071C11.0558 10.537 10.0736 10.9353 8.99998 10.9353C7.92635 10.9353 6.94403 10.537 6.19284 9.88062H5.99124L8.99998 13.9491L12.0087 9.88062Z" fill="#B2B2B2"/>
</g>
<defs>
<clipPath id="clip0">
<rect width="18" height="18" fill="white"/>
</clipPath>
</defs>
</svg>
