<svg width="65" height="57" viewBox="0 0 65 57" fill="none" xmlns="http://www.w3.org/2000/svg">
<path d="M63.5985 15.7024L33.6356 0.275767C32.921 -0.0919223 32.0794 -0.0919223 31.3643 0.275767L1.40193 15.7024C-0.405166 16.6328 -0.481536 19.2644 1.26754 20.3046V54.3853C1.26754 55.8295 2.40466 57 3.80709 57C5.20903 57 6.34615 55.8295 6.34615 54.3853V22.9254L9.64693 24.625V35.6847C9.64693 36.6796 10.1954 37.5881 11.0618 38.0288L31.3752 48.3624C32.0839 48.7229 32.9155 48.7234 33.6247 48.3624L53.9386 38.0288C54.805 37.5881 55.353 36.6796 55.353 35.6847V24.7348C59.9967 22.2906 63.5751 20.3925 63.6257 20.3654C65.468 19.3885 65.4571 16.6594 63.5985 15.7024ZM50.2743 34.0598L32.4999 43.1019L14.7255 34.0598V27.2396C32.491 36.2782 31.4313 36.0826 32.4999 36.0826C33.3276 36.0826 33.1774 36.3507 50.2743 27.4005V34.0598ZM32.6205 30.6066L8.21524 18.0413L32.4999 5.53781L56.8476 18.0735C52.7708 20.226 36.7871 28.6491 32.6205 30.6066Z" fill="#EF7C97"/>
</svg>
