<svg width="59" height="59" viewBox="0 0 59 59" fill="none" xmlns="http://www.w3.org/2000/svg">
<path d="M56.6952 27.1953H54.2267C53.7693 22.1939 51.827 17.5053 48.614 13.6454L58.3251 3.93417C59.2249 3.03435 59.2249 1.57502 58.3251 0.675201C57.4249 -0.225067 55.9655 -0.225067 55.0657 0.675201L45.3545 10.3859C41.4946 7.17289 36.8061 5.23056 31.8046 4.77322V2.30469C31.8046 1.03171 30.7729 0 29.4999 0C28.227 0 27.1953 1.03171 27.1953 2.30469V4.77322C15.3167 5.8594 5.85939 15.3181 4.77321 27.1953H2.30468C1.03171 27.1953 0 28.227 0 29.5C0 30.773 1.03171 31.8047 2.30468 31.8047H4.77321C5.85939 43.6833 15.318 53.1406 27.1953 54.2268V56.6953C27.1953 57.9683 28.227 59 29.4999 59C30.7729 59 31.8046 57.9683 31.8046 56.6953V54.2268C43.6832 53.1406 53.1405 43.6819 54.2267 31.8047H56.6952C57.9682 31.8047 58.9999 30.773 58.9999 29.5C58.9999 28.227 57.9682 27.1953 56.6952 27.1953ZM47.9374 31.8047H49.5916C48.5298 41.118 41.1179 48.5299 31.8046 49.5917V47.9375C31.8046 46.6645 30.7729 45.6328 29.4999 45.6328C28.227 45.6328 27.1953 46.6645 27.1953 47.9375V49.5917C17.882 48.5299 10.4701 41.118 9.40824 31.8047H11.0625C12.3355 31.8047 13.3672 30.773 13.3672 29.5C13.3672 28.227 12.3355 27.1953 11.0625 27.1953H9.40824C10.4701 17.882 17.882 10.4701 27.1953 9.40871V11.0625C27.1953 12.3355 28.227 13.3672 29.4999 13.3672C30.7729 13.3672 31.8046 12.3355 31.8046 11.0625V9.40871C35.6569 9.84759 39.1837 11.3726 42.0708 13.6697L31.8046 23.9359V20.7422C31.8046 19.4692 30.7729 18.4375 29.4999 18.4375C28.227 18.4375 27.1953 19.4692 27.1953 20.7422V29.5C27.1953 29.5036 27.1957 29.5068 27.1957 29.5104C27.2016 30.7788 28.2351 31.8047 29.4999 31.8047H38.2577C39.5307 31.8047 40.5624 30.773 40.5624 29.5C40.5624 28.227 39.5307 27.1953 38.2577 27.1953H35.064L45.3302 16.9291C47.6277 19.8163 49.1523 23.3431 49.5916 27.1953H47.9374C46.6644 27.1953 45.6327 28.227 45.6327 29.5C45.6327 30.773 46.6644 31.8047 47.9374 31.8047Z" fill="#EF7C97"/>
</svg>
