<svg width="66" height="54" viewBox="0 0 66 54" fill="none" xmlns="http://www.w3.org/2000/svg">
<path d="M65.4739 49.8977L44.7673 22.7673C44.7673 22.1604 44.7673 3.18356 44.7673 2.58673V2.55774C44.7673 1.14516 43.6132 0 42.1891 0C42.1685 0 20.973 0.0289913 20.9594 0.0289913C18.7644 0.0289913 17.5736 2.58823 18.9976 4.24574L22.8799 8.7674L18.9976 13.2886C17.5736 14.9466 18.7644 17.5058 20.9594 17.5058H39.6115V22.7673L25.3719 41.4237L18.2377 32.0765C17.2065 30.7249 15.1576 30.7269 14.1278 32.0765L0.525687 49.8977C-0.756831 51.5782 0.453177 54 2.58064 54H63.4189C65.5439 54 66.7584 51.5807 65.4739 49.8977ZM19.6784 48.884H7.7666L16.1828 37.8573L22.1387 45.6605L19.6784 48.884ZM26.5426 12.3898L28.229 10.4259C29.0503 9.47019 29.0503 8.06411 28.229 7.10839L26.5426 5.14448H39.6115V12.3898H26.5426ZM26.1453 48.884L42.1891 27.8632L58.233 48.884H26.1453Z" fill="#EF7C97"/>
</svg>
