<svg width="52" height="61" viewBox="0 0 52 61" fill="none" xmlns="http://www.w3.org/2000/svg">
<path d="M38.7098 35.9545C41.1221 33.0453 42.4587 29.385 42.4587 25.498V2.38572C42.4587 0.360333 40.0785 -0.742181 38.5313 0.567898L33.0367 5.21949L27.5421 0.567898C26.6522 -0.185107 25.3478 -0.185107 24.4579 0.567898L18.9633 5.21949L13.4687 0.567898C11.9219 -0.74125 9.54128 0.359402 9.54128 2.38572V25.498C9.54128 29.3822 10.8784 33.042 13.2912 35.9535C5.41542 40.3585 0 48.8305 0 58.6172C0 59.9333 1.0678 61 2.38532 61H49.6147C50.9322 61 52 59.9333 52 58.6172C52 48.7746 46.5585 40.3468 38.7098 35.9545ZM14.3119 7.5283L17.4212 10.1601C18.3111 10.9136 19.6155 10.9136 20.5054 10.1601L26 5.50897L31.4946 10.1601C32.3845 10.9136 33.6889 10.9136 34.5788 10.1601L37.6881 7.5283V15.0141H14.3119V7.5283ZM14.3119 19.7793H37.6881V25.498C37.6881 32.0549 32.3598 37.1729 26 37.1729C19.6649 37.1729 14.3119 32.0726 14.3119 25.498V19.7793ZM4.90295 56.2344C5.73083 48.8216 10.4223 42.429 17.1296 39.3481C19.7744 41.0468 22.8129 41.9385 26 41.9385C29.1885 41.9385 32.2289 41.0458 34.8727 39.3467C41.3909 42.3396 46.2515 48.6215 47.098 56.2344H4.90295Z" fill="#EF7C97"/>
</svg>
