<svg width="100" height="100" viewBox="0 0 100 100" fill="none" xmlns="http://www.w3.org/2000/svg">
<g clip-path="url(#clip0)">
<path d="M97.9397 25.995C96.7869 21.7111 93.4093 18.3343 89.1262 17.1807C81.3008 15.0392 49.999 15.0392 49.999 15.0392C49.999 15.0392 18.698 15.0392 10.8726 17.0991C6.67188 18.2519 3.21197 21.7118 2.05917 25.995C3.8147e-06 33.8196 3.8147e-06 50.0473 3.8147e-06 50.0473C3.8147e-06 50.0473 3.8147e-06 66.3566 2.05917 74.0996C3.21273 78.3827 6.58948 81.7603 10.8734 82.9138C18.7804 85.0554 49.9998 85.0554 49.9998 85.0554C49.9998 85.0554 81.3008 85.0554 89.1262 82.9954C93.4101 81.8427 96.7869 78.4651 97.9404 74.182C99.9996 66.3566 99.9996 50.1297 99.9996 50.1297C99.9996 50.1297 100.082 33.8196 97.9397 25.995Z" fill="#FF0000"/>
<path d="M40.0328 65.0392L66.062 50.0474L40.0328 35.0557V65.0392Z" fill="white"/>
</g>
<defs>
<clipPath id="clip0">
<rect width="100" height="100" fill="white"/>
</clipPath>
</defs>
</svg>
